<?xml version="1.0" standalone="no"?>
<!DOCTYPE svg PUBLIC "-//W3C//DTD SVG 1.1//EN" "http://www.w3.org/Graphics/SVG/1.1/DTD/svg11.dtd" >
<svg xmlns="http://www.w3.org/2000/svg" xmlns:xlink="http://www.w3.org/1999/xlink" version="1.1">
<metadata></metadata>
<defs>
<font id="catamaranmedium" horiz-adv-x="1280" >
<font-face units-per-em="2048" ascent="1577" descent="-471" />
<missing-glyph horiz-adv-x="471" />
<glyph horiz-adv-x="0" />
<glyph horiz-adv-x="0" />
<glyph unicode="&#xd;" horiz-adv-x="0" />
<glyph unicode=" "  horiz-adv-x="471" />
<glyph unicode="&#x09;" horiz-adv-x="471" />
<glyph unicode="&#xa0;" horiz-adv-x="471" />
<glyph unicode="!" horiz-adv-x="370" d="M61 123q0 -51 37 -87t88 -36t87 36t36 87t-35.5 87t-87.5 36q-51 0 -88 -36t-37 -87zM78 1438l35 -967l149 -70l31 1037h-215z" />
<glyph unicode="&#x22;" horiz-adv-x="716" d="M41 1055l47 -92q96 51 162.5 157.5t66.5 210.5q0 63 -37.5 105.5t-89.5 42.5q-49 0 -86.5 -40t-37.5 -85t31.5 -83t68.5 -40q-6 -55 -37 -93t-88 -83zM379 1055l49 -92q96 51 161.5 157.5t65.5 210.5q0 66 -36.5 107t-88.5 41q-49 0 -86.5 -40t-37.5 -85t31.5 -83 t70.5 -40q-10 -55 -41 -94t-88 -82z" />
<glyph unicode="#" horiz-adv-x="1105" d="M61 397l19 -149h110l-57 -252l164 -10l61 262h263l-58 -252l164 -10l59 262h258l-16 149h-207l60 250h163l-16 150h-113l58 245l-168 5l-57 -250h-263l60 245l-166 5l-60 -250h-258l19 -150h203l-58 -250h-164zM393 397l60 250h260l-60 -250h-260z" />
<glyph unicode="$" horiz-adv-x="1060" d="M82 1065q0 113 67.5 201t190.5 129v231l137 21v-222h35q47 0 92 -4v205l139 21v-250q92 -29 164 -64l-65 -155q-72 35 -136.5 54t-152.5 19q-123 0 -198.5 -47t-75.5 -135q0 -68 38.5 -118t110.5 -91t211 -104q186 -84 273 -174t87 -234q0 -117 -66.5 -205t-189.5 -131 v-256h-139v224q-49 -6 -94 -7h-33v-217h-137v236q-143 31 -234 84l46 155q66 -35 162 -61.5t182 -26.5q145 0 225 54.5t80 146.5q0 66 -40 116t-114 92t-205 99q-129 57 -205.5 111.5t-115.5 127.5t-39 175z" />
<glyph unicode="%" horiz-adv-x="1812" d="M61 1090q0 -107 44.5 -186t119 -120t166.5 -41q88 0 164 43t121 122t45 182q0 162 -94.5 255t-235.5 93q-88 0 -163.5 -43t-121 -123t-45.5 -182zM238 1092q0 96 45 146t108 50q66 0 110 -50t44 -148t-45 -148.5t-109 -50.5q-68 0 -110.5 50t-42.5 151zM496 0l194 -8 l621 1454l-195 8zM1096 346q0 -160 94 -253t235 -93q86 0 161 43t120 122t45 181q0 162 -92 254t-234 92q-90 0 -164.5 -43t-119.5 -121.5t-45 -181.5zM1270 348q0 96 46 146.5t109 50.5t107.5 -52.5t44.5 -146.5q0 -98 -45 -149.5t-107 -51.5q-68 0 -111.5 51.5 t-43.5 151.5z" />
<glyph unicode="&#x26;" horiz-adv-x="1378" d="M82 436q0 -147 70.5 -250.5t190.5 -156t271 -54.5q272 0 430 158l162 -149l111 141l-166 149q86 168 98 402l-168 65q-12 -197 -77 -335l-379 352q-106 96 -149.5 159.5t-43.5 143.5t56.5 137t148.5 57q76 0 128 -16t93 -35.5t55 -25.5l68 155q-88 43 -170 67.5 t-176 24.5q-123 0 -214 -51t-139.5 -137t-48.5 -188q0 -113 62 -203q-96 -70 -153.5 -178.5t-59.5 -231.5zM285 440q2 86 36.5 159t94.5 118q35 -39 88 -90l401 -367q-113 -113 -291 -113q-137 0 -233 75t-96 218z" />
<glyph unicode="'" horiz-adv-x="378" d="M41 1055l47 -92q96 51 162.5 157.5t66.5 210.5q0 63 -37.5 105.5t-89.5 42.5q-49 0 -86.5 -40t-37.5 -85t31.5 -83t68.5 -40q-6 -55 -37 -93t-88 -83z" />
<glyph unicode="(" horiz-adv-x="571" d="M102 655q0 -188 64.5 -381.5t187.5 -351.5l156 58q-57 63 -108.5 185t-82 257t-30.5 235q0 152 67.5 360t153.5 316l-156 56q-125 -166 -188.5 -357.5t-63.5 -376.5z" />
<glyph unicode=")" horiz-adv-x="571" d="M61 -23l156 -55q123 170 187.5 361.5t64.5 371.5q0 186 -65.5 380t-186.5 354l-156 -58q58 -63 108 -185t81 -256t31 -235q0 -152 -67 -361.5t-153 -316.5z" />
<glyph unicode="*" horiz-adv-x="743" d="M20 1274l230 -45l-160 -228l117 -88l166 222l164 -222l116 88l-159 228l229 45l-43 133l-229 -49l-2 219h-154l-4 -219l-228 49z" />
<glyph unicode="+" horiz-adv-x="1099" d="M61 637l17 -154h385v-467l182 -8v475h393l-20 154h-373v450l-182 7v-457h-402z" />
<glyph unicode="," horiz-adv-x="378" d="M41 -176l47 -92q98 51 163.5 156.5t65.5 209.5q0 66 -35.5 107t-91.5 41q-49 0 -85.5 -37t-36.5 -86q0 -45 31.5 -83t68.5 -40q-6 -55 -37 -93t-90 -83z" />
<glyph unicode="-" horiz-adv-x="663" d="M61 637l19 -156h522l-18 156h-523z" />
<glyph unicode="." horiz-adv-x="368" d="M61 123q0 -51 36 -87t89 -36q52 0 86.5 36t34.5 87t-34.5 87t-86.5 36q-53 0 -89 -36t-36 -87z" />
<glyph unicode="/" horiz-adv-x="858" d="M20 0l195 -8l623 1454l-197 8z" />
<glyph unicode="0" horiz-adv-x="1222" d="M61 586q0 -174 71 -314.5t197 -219.5t283 -79q158 0 283 79t195.5 220.5t70.5 317.5q0 170 -70.5 306t-195.5 213t-283 77t-283.5 -77t-196.5 -214t-71 -309zM250 592q0 123 46 220t129 151.5t187 54.5t187.5 -56.5t129.5 -155.5t46 -224q0 -127 -46 -227.5t-129 -157 t-188 -56.5q-104 0 -187 58.5t-129 161t-46 231.5z" />
<glyph unicode="1" horiz-adv-x="665" d="M20 979l91 -156l215 115v-938h196v1159h-131z" />
<glyph unicode="2" horiz-adv-x="985" d="M51 0h893l-37 152h-592l260 217q174 145 240 254.5t66 232.5q0 158 -116 244t-316 86q-121 0 -206 -30t-165 -77l47 -157q88 49 155.5 76.5t165.5 27.5q119 0 186.5 -48t67.5 -149q0 -76 -53 -149.5t-164 -171.5l-432 -379v-129z" />
<glyph unicode="3" horiz-adv-x="962" d="M0 -39q94 -49 202.5 -83t215.5 -34q141 0 248.5 50.5t166 139.5t58.5 197q0 123 -66.5 212t-158.5 110q82 31 141 110.5t59 178.5q0 92 -48 171t-142 126t-230 47q-210 0 -415 -133l94 -131q61 43 143 73.5t172 30.5q106 0 172 -55.5t66 -132.5q0 -96 -86 -154.5 t-234 -58.5h-102l29 -150h61q182 0 269 -65.5t87 -180.5q0 -100 -83.5 -162.5t-196.5 -62.5q-94 0 -168 22.5t-154 69.5z" />
<glyph unicode="4" horiz-adv-x="1097" d="M20 297l27 -162h598v-276h197v276h192l23 162h-215v872h-142zM231 297l414 541v-541h-414z" />
<glyph unicode="5" horiz-adv-x="1026" d="M61 -39q92 -49 201 -83t213 -34q152 0 262.5 57.5t169 157t58.5 224.5q-2 182 -114 300.5t-329 118.5q-102 0 -192 -53l16 348h520l23 162h-717l-33 -713h183q28 37 84.5 68t125.5 31q109 0 176.5 -69.5t67.5 -192.5q0 -125 -81 -200t-212 -75q-98 0 -170.5 21.5 t-152.5 68.5z" />
<glyph unicode="6" horiz-adv-x="1064" d="M61 516q0 225 118 395t295 267.5t355 119.5l37 -155q-201 -39 -369.5 -147.5t-224.5 -297.5q66 45 133.5 70t149.5 25q131 0 233.5 -51.5t159 -142.5t56.5 -210t-56.5 -214t-158 -148.5t-228.5 -53.5q-145 0 -258 62.5t-177.5 184.5t-64.5 296zM250 502q8 -174 93 -269.5 t210 -95.5q117 0 192.5 68.5t75.5 173.5q0 117 -73.5 186.5t-198.5 69.5q-143 0 -299 -133z" />
<glyph unicode="7" horiz-adv-x="923" d="M20 1159l25 -162h614l-397 -1083l184 -55l437 1216l-62 84h-801z" />
<glyph unicode="8" horiz-adv-x="1054" d="M61 362q0 -109 55.5 -196.5t161 -140t250.5 -52.5q143 0 249 52.5t161 141.5t55 195q0 76 -35.5 146t-94 119t-124.5 67q86 39 143.5 114t57.5 163q0 92 -49 172t-142.5 127t-220.5 47t-220 -47t-142 -127t-49 -172t55 -165t143 -112q-66 -16 -124 -68.5t-94 -123 t-36 -140.5zM246 358q0 98 72.5 170t209.5 90q136 -18 208.5 -89.5t72.5 -170.5q0 -100 -83 -162.5t-198 -62.5q-119 0 -200.5 61.5t-81.5 163.5zM299 969q0 78 61.5 133t163.5 55q107 0 169.5 -54t62.5 -134q0 -78 -59.5 -134.5t-168.5 -72.5q-109 16 -169 72.5t-60 134.5z " />
<glyph unicode="9" horiz-adv-x="1064" d="M61 770q0 119 56.5 214t158 148.5t228.5 53.5q145 0 257.5 -62.5t177.5 -184.5t65 -296q0 -225 -118 -395t-295 -267.5t-355 -119.5l-37 155q201 39 369.5 147.5t224.5 297.5q-66 -45 -133.5 -69.5t-149.5 -24.5q-131 0 -233.5 51t-159 142t-56.5 210zM244 780 q0 -116 73.5 -186t198.5 -70q143 0 299 133q-8 174 -93 269.5t-210 95.5q-117 0 -192.5 -68.5t-75.5 -173.5z" />
<glyph unicode=":" horiz-adv-x="368" d="M61 160q0 -51 36 -87t87 -36q52 0 87.5 36t35.5 87q0 53 -35.5 89t-87.5 36q-51 0 -87 -36t-36 -89zM61 821q0 -51 36 -87t87 -36q52 0 87.5 36t35.5 87t-35.5 88t-87.5 37q-51 0 -87 -37t-36 -88z" />
<glyph unicode=";" horiz-adv-x="380" d="M41 -139l47 -92q98 51 163.5 156.5t65.5 209.5q0 68 -35.5 109t-91.5 41q-49 0 -85.5 -38t-36.5 -87q0 -47 31.5 -84t68.5 -39q-6 -55 -37 -93t-90 -83zM70 821q0 -51 36.5 -87t90.5 -36q51 0 86.5 36t35.5 87t-35.5 88t-86.5 37q-54 0 -90.5 -37t-36.5 -88z" />
<glyph unicode="&#x3c;" horiz-adv-x="686" d="M61 446l537 -407l47 156l-393 307l393 305l-47 156l-537 -408v-109z" />
<glyph unicode="=" horiz-adv-x="1036" d="M61 397l19 -149h895l-17 149h-897zM61 797l19 -150h895l-17 150h-897z" />
<glyph unicode="&#x3e;" horiz-adv-x="686" d="M41 195l47 -156l537 407v109l-537 408l-47 -156l393 -305z" />
<glyph unicode="?" horiz-adv-x="858" d="M20 1317l25 -174q94 63 178 95t170 32q102 0 158.5 -47t56.5 -142q0 -98 -96 -182t-252 -135l16 -381l142 -57l24 338q160 76 257.5 191.5t97.5 229.5q0 160 -100.5 255.5t-297.5 95.5q-110 0 -196 -30t-183 -89zM215 123q0 -51 36 -87t87 -36t88 36t37 87t-37 87t-88 36 t-87 -36t-36 -87z" />
<glyph unicode="@" horiz-adv-x="1564" d="M61 449q0 -193 94.5 -342.5t248 -232.5t323.5 -83q244 0 410 86l-50 148q-72 -37 -161.5 -54.5t-175.5 -17.5q-139 0 -255 60.5t-184.5 173t-68.5 262.5q0 184 86 325t227 218t303 77q141 0 250 -58.5t169 -162t60 -236.5q0 -150 -52 -240.5t-130 -90.5q-33 0 -60.5 23.5 t-21.5 68.5l47 418l-57 71h-156q-121 0 -227.5 -52t-172 -147.5t-65.5 -218.5q0 -145 88 -230t261 -85q92 0 186 59q61 -61 164 -61q164 0 263 128t99 370q0 172 -82 308t-228 214t-331 78q-240 0 -422 -104.5t-280.5 -283t-98.5 -388.5zM621 444q0 131 87 204t212 73h32 l-43 -338q-8 -49 -39.5 -75.5t-81.5 -26.5q-86 0 -126.5 48t-40.5 115z" />
<glyph unicode="A" d="M20 0h193l139 373h568l145 -389l195 28l-537 1381h-178zM408 530l223 598l229 -598h-452z" />
<glyph unicode="B" horiz-adv-x="1234" d="M184 0h482q231 0 369.5 99.5t138.5 297.5q0 129 -67 217t-183 134q178 115 178 268q0 377 -479 377h-439v-1393zM381 162v477h297q139 0 217 -61.5t78 -184.5q0 -119 -86 -175t-230 -56h-276zM381 799v428h225q146 0 219.5 -46t73.5 -167q0 -111 -90 -162t-238 -53h-190z " />
<glyph unicode="C" horiz-adv-x="1144" d="M82 688q0 -201 74.5 -363.5t221 -258t353.5 -95.5q88 0 196.5 23.5t176.5 58.5l-76 148q-133 -61 -305 -62q-133 0 -232.5 74t-151.5 200t-52 277q0 164 59.5 293t162.5 199.5t230 70.5q90 0 147.5 -12t149.5 -45l62 141q-68 41 -174.5 62.5t-180.5 21.5q-199 0 -349 -95 t-231 -262t-81 -376z" />
<glyph unicode="D" horiz-adv-x="1388" d="M184 0h494q199 0 341 90t215 250t73 365q0 309 -156 498.5t-465 189.5h-502v-1393zM381 164v1061h313q207 0 310.5 -140.5t103.5 -382.5q0 -258 -117 -398t-313 -140h-297z" />
<glyph unicode="E" horiz-adv-x="1110" d="M184 0h885l-27 154h-661v479h500l-27 151h-473v457h614l-26 152h-785v-1393z" />
<glyph unicode="F" horiz-adv-x="1005" d="M184 0h197v625h477l-24 149h-453v467h584l-29 152h-752v-1393z" />
<glyph unicode="G" horiz-adv-x="1286" d="M82 688q0 -203 86 -365.5t243.5 -257t366.5 -94.5q109 0 219.5 28t184.5 71l2 661h-469l-17 -149h303v-408q-113 -35 -227 -35q-139 0 -249.5 67.5t-174 192.5t-63.5 291q0 176 71.5 304t189.5 193.5t257 65.5q90 0 146.5 -12t148.5 -45l61 141q-68 41 -175 62.5 t-185 21.5q-203 0 -367 -93t-258 -260t-94 -380z" />
<glyph unicode="H" horiz-adv-x="1380" d="M184 0h197v621h618v-621h197v1393h-197v-615h-618v625l-197 -10v-1393z" />
<glyph unicode="I" horiz-adv-x="565" d="M184 0h197v1393h-197v-1393z" />
<glyph unicode="J" horiz-adv-x="548" d="M20 -68l78 -141q113 35 174.5 75t87 98.5t25.5 148.5v1280h-197v-1243q0 -72 -13 -109t-47 -59.5t-108 -49.5z" />
<glyph unicode="K" d="M184 0v1393h197v-645l635 675l139 -114l-493 -527l598 -782h-240l-490 641l-149 -160v-481h-197z" />
<glyph unicode="L" horiz-adv-x="1054" d="M184 0h850l-24 154h-629v1239h-197v-1393z" />
<glyph unicode="M" horiz-adv-x="1566" d="M184 0h197v985l385 -539l72 11l346 510v-967h198v1393h-122l-465 -688l-490 688h-121v-1393z" />
<glyph unicode="N" horiz-adv-x="1464" d="M184 0h197v1038l723 -1038h176v1393h-199v-1031l-723 1031h-174v-1393z" />
<glyph unicode="O" horiz-adv-x="1492" d="M82 690q0 -207 85 -370.5t235.5 -256t338.5 -92.5q193 2 345.5 98.5t238.5 262.5t86 373t-85 370.5t-236.5 256.5t-341.5 93q-191 -4 -342.5 -100t-237.5 -262t-86 -373zM287 692q0 162 59.5 290t165.5 200.5t240 72.5q129 0 231 -70.5t160.5 -196.5t58.5 -283 q0 -162 -59.5 -291t-165 -202t-238.5 -73q-129 0 -232.5 71t-161.5 198t-58 284z" />
<glyph unicode="P" horiz-adv-x="1171" d="M184 0h197v512h182q152 0 276 48t197.5 148.5t73.5 249.5q0 221 -144.5 328t-381.5 107h-400v-1393zM381 676v551h201q159 0 241 -62.5t82 -214.5q-6 -139 -95 -206.5t-239 -67.5h-190z" />
<glyph unicode="Q" horiz-adv-x="1492" d="M82 690q0 207 86 373t237.5 262t342.5 100q190 0 341.5 -93t236.5 -257t85 -370q0 -150 -46 -281t-132 -229l149 -146l-114 -100l-152 141q-164 -117 -375 -119q-188 0 -338.5 92.5t-235.5 256t-85 370.5zM287 692q0 -158 58 -284.5t161.5 -197.5t232.5 -71q138 0 244 76 l-180 168l135 102l158 -153q106 152 106 373q0 158 -58.5 283.5t-160.5 196t-231 70.5q-133 0 -239.5 -72.5t-166 -200.5t-59.5 -290z" />
<glyph unicode="R" horiz-adv-x="1236" d="M184 0h197v557h182q94 0 129 6l312 -563h213l-351 614q111 47 176.5 140.5t67.5 224.5q0 209 -145.5 311.5t-380.5 102.5h-400v-1393zM381 717v510h201q157 0 240 -58.5t83 -197.5q-2 -133 -93 -193.5t-241 -60.5h-190z" />
<glyph unicode="S" horiz-adv-x="1060" d="M82 1065q0 -102 39 -175t115.5 -127t205.5 -112q131 -57 205 -99t114 -92t40 -116q0 -92 -80 -146.5t-225 -54.5q-86 0 -182.5 27t-161.5 61l-46 -155q41 -37 171.5 -70t220.5 -33q158 0 270.5 47.5t171.5 132.5t59 195q0 143 -87 233.5t-273 174.5q-139 63 -211 104 t-110.5 91t-38.5 118q0 88 75.5 135t198.5 47q88 0 152.5 -19.5t136.5 -53.5l65 155q-78 39 -175 65.5t-193 26.5q-139 0 -242.5 -47t-159 -129t-55.5 -184z" />
<glyph unicode="T" horiz-adv-x="1171" d="M20 1237h453v-1237h199v1237h479l-27 156h-1104v-156z" />
<glyph unicode="U" horiz-adv-x="1413" d="M164 498q0 -150 66.5 -268.5t189.5 -185.5t287 -67t286.5 68t189 185.5t66.5 267.5v895h-198v-877q0 -172 -92.5 -274.5t-251.5 -102.5q-156 0 -251.5 101.5t-95.5 275.5v877h-196v-895z" />
<glyph unicode="V" d="M20 1380l537 -1380h178l525 1393h-193l-418 -1129l-434 1145z" />
<glyph unicode="W" horiz-adv-x="1828" d="M20 1380l195 29l311 -1145l295 1129h193l307 -1129l295 1129h192l-401 -1393h-178l-314 1110l-303 -1110h-178z" />
<glyph unicode="X" horiz-adv-x="1236" d="M20 0h205l396 565l358 -565h211l-445 686l472 707h-207l-365 -570l-407 611l-160 -82l440 -647z" />
<glyph unicode="Y" horiz-adv-x="1185" d="M20 1358l461 -805v-553h197l2 555l485 838h-209l-376 -643l-369 677z" />
<glyph unicode="Z" horiz-adv-x="1155" d="M41 154l22 -154h1045l-21 154h-831l858 1083l-20 156h-996l27 -156h766z" />
<glyph unicode="[" horiz-adv-x="651" d="M205 -180h426l-29 149h-207v1305h207l29 151h-426v-1605z" />
<glyph unicode="\" horiz-adv-x="858" d="M20 1446l621 -1454l197 8l-621 1454z" />
<glyph unicode="]" horiz-adv-x="649" d="M20 -180h424v1605h-424l27 -151h205v-1305h-205z" />
<glyph unicode="^" horiz-adv-x="884" d="M20 293h199l223 323l224 -323h198l-350 506h-141z" />
<glyph unicode="_" horiz-adv-x="901" d="M61 154l19 -154h760l-19 154h-760z" />
<glyph unicode="`" horiz-adv-x="360" d="M20 1530l185 -324l135 35l-111 289h-209z" />
<glyph unicode="a" horiz-adv-x="1009" d="M96 287q0 -141 88 -226.5t258 -85.5q76 0 156 35t135 84l25 -94h137v674q0 94 -52 174t-144.5 126t-204.5 46q-70 0 -177.5 -25.5t-160.5 -62.5l55 -156q152 68 287 68q111 0 154.5 -64.5t43.5 -185.5h-235q-166 0 -265.5 -81t-99.5 -226zM272 287q0 73 49.5 124.5 t135.5 51.5h241v-201q-53 -59 -120.5 -95t-139.5 -36q-80 0 -123 46t-43 110z" />
<glyph unicode="b" horiz-adv-x="1099" d="M143 0v1423l197 23v-488q55 29 109.5 45.5t95.5 16.5q151 0 263 -65.5t171 -185.5t59 -280q0 -154 -61.5 -270.5t-174 -181t-259.5 -64.5q-51 0 -120 21.5t-130 64.5l-39 -59h-111zM340 209q86 -68 205 -68q137 0 215 97.5t78 248.5q0 164 -77 264.5t-216 100.5 q-121 0 -205 -72v-571z" />
<glyph unicode="c" horiz-adv-x="950" d="M61 498q0 -156 60.5 -275t172.5 -184.5t261 -65.5q70 0 173 27t165 68l-59 141q-72 -35 -133.5 -51.5t-145.5 -16.5q-137 0 -215 99.5t-78 259.5q2 152 83 252t216 100q78 0 136.5 -16.5t142.5 -51.5l57 140q-61 41 -163.5 68.5t-170.5 27.5q-152 0 -265.5 -65.5 t-175 -184.5t-61.5 -272z" />
<glyph unicode="d" horiz-adv-x="1114" d="M61 504q0 154 61.5 270.5t174.5 181t260 64.5q43 0 101.5 -16.5t113.5 -47.5v467l199 21v-1444h-113l-39 76q-61 -49 -136 -76t-128 -27q-152 0 -263.5 65.5t-171 185.5t-59.5 280zM262 506q0 -164 77 -264.5t216 -100.5q68 0 119 20.5t98 63.5v549q-47 41 -99 59.5 t-118 18.5q-137 0 -215 -97.5t-78 -248.5z" />
<glyph unicode="e" horiz-adv-x="1032" d="M61 498q0 -240 139.5 -381.5t399.5 -141.5q180 0 361 109l-62 143q-104 -49 -162.5 -68.5t-136.5 -19.5q-160 0 -240.5 84t-93.5 230h705v53q0 225 -109.5 369.5t-324.5 144.5q-145 0 -253 -65.5t-165.5 -184.5t-57.5 -272zM270 586q15 125 81.5 195.5t178.5 70.5 q211 0 250 -266h-510z" />
<glyph unicode="f" horiz-adv-x="663" d="M31 981l2 -150h149v-831h197v831h248l-64 150h-184v111q0 80 33.5 126t103.5 46q39 0 98 -23l50 152q-27 18 -75 31.5t-91 13.5q-147 0 -231.5 -89t-84.5 -239v-129h-151z" />
<glyph unicode="g" horiz-adv-x="1105" d="M61 504q0 154 61.5 270.5t174.5 181t260 64.5q53 0 127 -24.5t135 -71.5l39 69h113v-1081q0 -111 -56.5 -198t-163 -136t-255.5 -49q-72 0 -180.5 27.5t-172.5 70.5l60 142q102 -45 154.5 -62.5t131.5 -17.5q127 0 205 58t78 167v129q-55 -33 -114.5 -51.5t-102.5 -18.5 q-152 0 -263.5 65.5t-171 185.5t-59.5 280zM262 506q0 -164 77 -264.5t216 -100.5q68 0 119 20.5t98 63.5v549q-47 41 -99 59.5t-118 18.5q-137 0 -215 -97.5t-78 -248.5z" />
<glyph unicode="h" horiz-adv-x="1128" d="M143 0v1423l197 23v-563q78 66 171 104.5t183 38.5q162 0 241 -100.5t79 -270.5v-655h-197v637q0 109 -36 165t-128 56q-70 0 -151.5 -44t-161.5 -114v-700h-197z" />
<glyph unicode="i" horiz-adv-x="444" d="M98 1294q0 -51 35 -87t86 -36t88 36t37 87t-37 87t-88 36t-86 -35.5t-35 -87.5zM123 0h199v993h-199v-993z" />
<glyph unicode="j" horiz-adv-x="491" d="M0 -276q70 25 102.5 55.5t42 73.5t9.5 120v1020h198v-989q0 -135 -16.5 -207.5t-74.5 -125t-185 -93.5zM129 1294q0 51 36 87t87 36t88 -35.5t37 -87.5q0 -51 -37 -87t-88 -36t-87 36t-36 87z" />
<glyph unicode="k" horiz-adv-x="997" d="M143 0h197v356l127 123l301 -479h229l-395 606l295 283l-115 131l-442 -432v858l-197 -23v-1423z" />
<glyph unicode="l" horiz-adv-x="483" d="M143 0h197v1446l-197 -23v-1423z" />
<glyph unicode="m" horiz-adv-x="1724" d="M123 0v993h137l35 -131q78 72 177 118t190 46q98 0 166.5 -43t103.5 -121q78 72 177 118t189 46q156 0 234 -101.5t78 -269.5v-655h-197v637q0 106 -36 163.5t-120 57.5q-59 0 -134.5 -40t-151.5 -105q2 -18 2 -58v-655h-197v637q0 106 -35.5 163.5t-119.5 57.5 q-63 0 -142.5 -44t-159.5 -114v-700h-196z" />
<glyph unicode="n" horiz-adv-x="1107" d="M123 0h196v700q80 70 162 114t152 44q92 0 128 -56.5t36 -164.5v-637h196v655q0 170 -78.5 270.5t-240.5 100.5q-98 0 -198.5 -46t-180.5 -118l-35 131h-137v-993z" />
<glyph unicode="o" horiz-adv-x="1116" d="M61 498q0 154 61.5 272.5t174.5 184t264 65.5q150 0 261.5 -65.5t172 -184.5t60.5 -274q0 -154 -61.5 -273t-175 -184.5t-265.5 -65.5q-150 0 -261.5 65.5t-171 184.5t-59.5 275zM262 500q0 -160 78 -259.5t215 -99.5q135 0 216 100.5t83 252.5q0 160 -78 259t-215 99 q-135 0 -216 -100.5t-83 -251.5z" />
<glyph unicode="p" horiz-adv-x="1091" d="M135 -449v1442h111l43 -61q61 41 129.5 64.5t118.5 23.5q151 0 262.5 -65.5t171 -185.5t59.5 -280q0 -154 -61.5 -270.5t-174 -181t-259.5 -64.5q-41 0 -95.5 14.5t-107.5 43.5v-457zM332 209q86 -68 205 -68q137 0 214.5 97.5t77.5 248.5q0 164 -76.5 264.5 t-215.5 100.5q-121 0 -205 -72v-571z" />
<glyph unicode="q" horiz-adv-x="1105" d="M61 504q0 154 61.5 270.5t174.5 181t260 64.5q53 0 125 -23.5t133 -68.5l43 65h113v-1421l-199 -21v492q-55 -33 -114.5 -51.5t-102.5 -18.5q-152 0 -263.5 65.5t-171 185.5t-59.5 280zM262 506q0 -164 77 -264.5t216 -100.5q68 0 119 20.5t98 63.5v549q-47 41 -99 59.5 t-118 18.5q-137 0 -215 -97.5t-78 -248.5z" />
<glyph unicode="r" horiz-adv-x="692" d="M123 0h196v657q78 74 176.5 126.5t176.5 52.5l-43 157q-72 0 -167 -51t-165 -111l-64 162h-110v-993z" />
<glyph unicode="s" horiz-adv-x="862" d="M66 731q0 -193 325 -299q221 -70 221 -172q0 -57 -58 -92t-157 -35q-127 0 -266 68l-61 -138q57 -40 156.5 -65t170.5 -25q195 0 299.5 78t104.5 219q0 201 -336 322q-98 33 -150.5 67.5t-54.5 75.5q0 53 50 89t128 36q72 0 131.5 -17.5t130.5 -49.5l62 133 q-59 41 -154.5 67.5t-165.5 26.5q-174 0 -275 -77t-101 -212z" />
<glyph unicode="t" horiz-adv-x="698" d="M31 981l2 -150h139v-555q0 -150 85 -230.5t232 -80.5q41 0 89.5 13.5t78.5 29.5l-51 150q-59 -23 -96 -23q-72 0 -106.5 46t-34.5 126v524h241l-61 150h-180v293l-197 -45v-248h-141z" />
<glyph unicode="u" horiz-adv-x="1107" d="M115 338q0 -170 78.5 -270.5t240.5 -100.5q98 0 198.5 46t180.5 118l35 -131h137v993h-197v-700q-80 -70 -161.5 -114t-151.5 -44q-92 0 -128 56.5t-36 164.5v637h-196v-655z" />
<glyph unicode="v" horiz-adv-x="968" d="M20 961l369 -961h182l377 993h-203l-262 -717l-274 754z" />
<glyph unicode="w" horiz-adv-x="1437" d="M20 958l302 -958h180l207 707l219 -707h180l309 993h-203l-194 -700l-205 700h-207l-194 -700l-205 735z" />
<glyph unicode="x" horiz-adv-x="962" d="M20 0h220l227 356l227 -356h217l-311 475l342 518h-215l-240 -366l-254 401l-176 -70l297 -452z" />
<glyph unicode="y" horiz-adv-x="968" d="M20 961l363 -934l-57 -152q-23 -61 -76 -97t-152 -79l66 -152q119 27 213 99.5t131 173.5l440 1173h-203l-262 -712l-276 749z" />
<glyph unicode="z" horiz-adv-x="888" d="M37 102l24 -102h791l-21 156h-548l565 729l-10 108h-760l43 -159h473z" />
<glyph unicode="{" horiz-adv-x="571" d="M61 565h80q45 0 84 -38t39 -89q0 -29 -9 -62.5t-16.5 -53t-9.5 -25.5q-18 -51 -27 -82t-9 -63q0 -119 73.5 -178.5t229.5 -59.5h55l-19 147h-61q-53 0 -82 25t-29 57q0 27 9.5 60t16.5 51t9 25q18 43 27.5 75.5t9.5 63.5q0 152 -100 217q53 29 76.5 80t23.5 131 q0 35 -10 68.5t-29 82.5q-12 31 -22.5 64t-10.5 59q0 31 28 55.5t83 24.5h61l19 150h-55q-145 0 -222 -54.5t-77 -162.5q0 -61 28 -148q10 -33 18.5 -69.5t8.5 -77.5q0 -61 -31 -102.5t-80 -41.5h-80v-129z" />
<glyph unicode="|" horiz-adv-x="563" d="M184 0l195 -14v1456l-195 14v-1456z" />
<glyph unicode="}" horiz-adv-x="569" d="M18 -86h56q156 0 229.5 59.5t73.5 178.5q0 33 -9.5 63.5t-27.5 81.5q-2 6 -13.5 37t-16.5 56.5t-5 47.5q0 51 39 89t84 38h80v129h-80q-49 0 -80 41t-31 103q0 41 7.5 72.5t21.5 74.5q10 33 18.5 71t8.5 77q0 109 -77 163t-222 54h-56l19 -150h61q55 0 83 -24.5t28 -55.5 q0 -27 -10.5 -59.5t-22.5 -63.5q-18 -49 -28.5 -82.5t-10.5 -68.5q0 -80 23.5 -131t77.5 -80q-101 -65 -101 -217q0 -31 9.5 -63.5t27.5 -75.5q2 -6 13.5 -36t16.5 -54.5t5 -45.5q0 -33 -28.5 -57.5t-82.5 -24.5h-61z" />
<glyph unicode="~" horiz-adv-x="882" d="M61 385h166q8 80 74 80q41 0 70.5 -10.5t66.5 -28.5q43 -20 77 -30.5t81 -10.5q100 0 162.5 63.5t62.5 202.5h-168q-2 -45 -25.5 -64.5t-49.5 -19.5q-35 0 -62 9.5t-67 27.5q-45 23 -80 34t-82 11q-100 0 -163 -63.5t-63 -200.5z" />
<glyph unicode="&#xa1;" horiz-adv-x="370" d="M61 1313q0 -51 37 -88t88 -37q52 0 87.5 37t35.5 88t-35.5 88t-87.5 37q-51 0 -88 -37t-37 -88zM78 0h215l-31 965l-151 69z" />
<glyph unicode="&#xa2;" horiz-adv-x="950" d="M61 498q2 215 116 355t312 163v209l181 20v-237q150 -31 227 -84l-57 -140q-84 35 -142.5 51.5t-136.5 16.5q-135 0 -216 -100.5t-83 -251.5q0 -160 78 -259.5t215 -99.5q84 0 145.5 16.5t133.5 51.5l59 -141q-39 -27 -99.5 -47.5t-121.5 -32.5v-219h-180v208 q-201 20 -316 161t-115 360z" />
<glyph unicode="&#xa3;" horiz-adv-x="958" d="M102 784l2 -149h150v-307q0 -82 -36 -128t-112 -46l19 -154h813l-27 154h-516q57 72 58 280v201h325l-65 149h-260v271q0 80 32.5 127t104.5 47q37 0 96 -23l51 148q-27 18 -76 32.5t-92 14.5q-156 0 -235.5 -96.5t-79.5 -266.5v-254h-152z" />
<glyph unicode="&#xa4;" horiz-adv-x="1396" d="M61 -8l117 -139l215 219q131 -96 299 -99q180 0 309 99l218 -219l116 139l-205 211q84 129 87 291q-2 168 -84 294l202 209l-116 142l-215 -217q-131 96 -299 98q-166 -2 -308 -102l-219 221l-117 -142l209 -213q-39 -57 -61.5 -131.5t-22.5 -154.5q0 -162 80 -295z M389 500q0 92 42 170t113.5 122t160.5 44q88 0 158.5 -45.5t110.5 -124t40 -174.5q0 -95 -43 -171.5t-116 -121.5t-161 -45q-135 2 -220 100t-85 246z" />
<glyph unicode="&#xa5;" horiz-adv-x="1185" d="M20 1358l191 69l369 -677l376 643h209l-438 -756h305l19 -150h-371v-192h352l19 -148h-373v-147h-197v147h-327l-19 148h346v192h-327l-19 150h299z" />
<glyph unicode="&#xa6;" horiz-adv-x="563" d="M184 0l195 -14v604l-195 12v-602zM184 846l195 -15v611l-195 14v-610z" />
<glyph unicode="&#xa7;" horiz-adv-x="1193" d="M82 848q0 84 38 154.5t109 121.5q-14 45 -14 113q0 102 55.5 184t158.5 129t243 47q96 0 193.5 -26.5t174.5 -65.5l-65 -155q-72 35 -136.5 54t-152.5 19q-123 0 -198.5 -47t-75.5 -135q0 -68 38.5 -118t110.5 -91t211 -104q186 -84 273.5 -174t87.5 -234 q0 -88 -38 -159.5t-110 -120.5q14 -45 14 -109q0 -111 -59 -196t-172 -132t-270 -47q-90 0 -220.5 33t-171.5 70l46 155q66 -35 162 -61.5t182 -26.5q145 0 225 54.5t80 146.5q0 66 -40 116t-114 92t-205 99q-129 57 -205.5 111.5t-115.5 127t-39 175.5zM279 852 q0 -68 38.5 -118t110.5 -91t211 -104q158 -70 246 -146q49 49 49 123q0 66 -40 116t-113.5 92t-205.5 99q-174 78 -245 146q-51 -45 -51 -117z" />
<glyph unicode="&#xa8;" horiz-adv-x="618" d="M20 1360q0 -45 33 -78t78 -33q47 0 79 33t32 78t-32 77.5t-79 32.5q-45 0 -78 -32.5t-33 -77.5zM377 1360q0 -45 32.5 -78t77.5 -33q48 0 79.5 33t31.5 78t-31.5 77.5t-79.5 32.5q-45 0 -77.5 -32.5t-32.5 -77.5z" />
<glyph unicode="&#xa9;" horiz-adv-x="1652" d="M61 688q0 -211 94.5 -383t267.5 -272.5t402 -100.5t403.5 100.5t268.5 272.5t94 383t-94 384t-268 273.5t-404 100.5q-229 0 -402 -100.5t-267.5 -273.5t-94.5 -384zM207 690q0 180 75.5 323.5t216 225.5t326.5 82q188 0 328.5 -82t216.5 -225.5t76 -323.5t-76 -323.5 t-216 -225.5t-329 -82q-186 0 -326.5 82t-216 225.5t-75.5 323.5zM403 694q0 -219 120 -350t335 -131q68 0 156 24.5t147 65.5l-57 143q-72 -37 -120 -52t-124 -15q-256 0 -256 317q0 139 67.5 223.5t192.5 84.5q78 0 124 -14.5t122 -51.5l55 145q-59 41 -146 64.5 t-155 23.5q-139 0 -243.5 -59t-161 -167.5t-56.5 -250.5z" />
<glyph unicode="&#xaa;" horiz-adv-x="675" d="M61 954q0 -94 64.5 -152.5t173.5 -58.5q49 0 99.5 24t86.5 56l35 -63h94v430q0 66 -37.5 123t-103 91t-147.5 34q-47 0 -118 -17.5t-106 -42.5l35 -127q53 21 97.5 32t93.5 11q63 0 95 -36.5t32 -96.5h-144q-111 0 -180.5 -55t-69.5 -152zM217 961q0 36 32 57.5t87 21.5 h123v-82q-72 -76 -156 -75q-41 0 -63.5 22.5t-22.5 55.5z" />
<glyph unicode="&#xab;" horiz-adv-x="782" d="M61 455l308 -285l45 131l-203 201l203 200l-45 132l-308 -285v-94zM389 455l309 -285l43 131l-202 201l202 200l-43 132l-309 -285v-94z" />
<glyph unicode="&#xac;" horiz-adv-x="1052" d="M20 831l17 -155h782v-436l172 -11v500l-16 102h-955z" />
<glyph unicode="&#xad;" horiz-adv-x="245" />
<glyph unicode="&#xae;" horiz-adv-x="1472" d="M61 997q0 -186 83 -337.5t237 -239.5t356 -88q203 0 355.5 88t235.5 239.5t83 337.5q0 189 -83 341.5t-235.5 240.5t-355.5 88t-356.5 -88t-236.5 -240.5t-83 -341.5zM197 999q0 160 65.5 284t187 193.5t287.5 69.5q164 0 286 -69.5t187.5 -194.5t65.5 -283 q0 -156 -65.5 -279.5t-187.5 -195t-286 -71.5q-166 0 -287.5 71.5t-187 195.5t-65.5 279zM481 623h146v307l129 2l155 -309h164l-182 340q59 27 95 78t36 124q0 115 -79 171.5t-210 56.5h-254v-770zM627 1047v227h69q95 0 136.5 -20.5t41.5 -94.5q0 -66 -47 -89t-135 -23 h-65z" />
<glyph unicode="&#xaf;" horiz-adv-x="555" d="M20 1282h515l-19 156h-496v-156z" />
<glyph unicode="&#xb0;" horiz-adv-x="503" d="M20 1237q0 -92 69 -155.5t163 -63.5t162.5 63.5t68.5 155.5t-68.5 157.5t-162.5 65.5t-163 -65.5t-69 -157.5zM150 1237q0 41 29.5 70.5t72.5 29.5t72.5 -29.5t29.5 -72.5q0 -41 -29.5 -71.5t-72.5 -30.5t-72.5 30.5t-29.5 73.5z" />
<glyph unicode="&#xb1;" horiz-adv-x="983" d="M61 754l19 -140h328v-350l172 -10v360h342l-17 140h-325v333l-172 7v-340h-347zM63 141l17 -141h842l-13 141h-846z" />
<glyph unicode="&#xb2;" horiz-adv-x="741" d="M33 1485l67 -131q66 35 124.5 57.5t121.5 22.5q70 0 109 -36t39 -85q0 -61 -33 -117.5t-111 -124.5l-299 -254v-129h649l-20 137h-401l176 148q117 100 168 178t51 162q0 66 -34 127t-105.5 100t-180.5 39q-92 0 -161.5 -23.5t-109.5 -45t-50 -25.5z" />
<glyph unicode="&#xb3;" horiz-adv-x="741" d="M0 659q172 -90 313 -90q106 0 187.5 39t125.5 105.5t44 148.5q0 94 -49.5 161t-118.5 81q61 20 106 81.5t45 135.5q0 111 -82 184.5t-235 73.5q-88 0 -162 -26.5t-149 -73.5l69 -123q51 35 103.5 56.5t119.5 21.5q76 0 116 -33t40 -82q0 -68 -49 -109t-154 -41h-75 l20 -137h45q121 0 176.5 -43t55.5 -129q0 -68 -53.5 -107.5t-135.5 -39.5q-66 0 -114 16t-113 53z" />
<glyph unicode="&#xb4;" horiz-adv-x="360" d="M20 1241l136 -35l184 324h-209z" />
<glyph unicode="&#xb5;" horiz-adv-x="1128" d="M135 -449v1442h197v-637q0 -109 35.5 -165t128.5 -56q70 0 151.5 44t161.5 114v700h197v-993h-138l-34 131q-80 -72 -180.5 -118t-198.5 -46q-70 0 -123 19v-412z" />
<glyph unicode="&#xb6;" horiz-adv-x="1763" d="M61 958q0 -150 74 -250t198 -148t275 -48h64v-512h196v1237h439v-1237h198v1237h197v156h-1116q-238 0 -381.5 -106.5t-143.5 -328.5z" />
<glyph unicode="&#xb7;" horiz-adv-x="368" d="M61 537q0 -51 36 -88t89 -37q52 0 86.5 36.5t34.5 88.5q0 51 -34.5 86.5t-86.5 35.5q-53 0 -89 -35.5t-36 -86.5z" />
<glyph unicode="&#xb8;" horiz-adv-x="456" d="M20 -406q31 -20 82.5 -33.5t90.5 -13.5q100 0 171.5 51.5t71.5 145.5q0 55 -44 104.5t-109 65.5l45 113h-150l-74 -187q80 -8 131.5 -35.5t51.5 -64.5q0 -29 -29 -44t-65 -15q-27 0 -63 11t-64 23z" />
<glyph unicode="&#xb9;" horiz-adv-x="569" d="M20 1427l70 -122l158 79v-696h178v877h-117z" />
<glyph unicode="&#xba;" horiz-adv-x="786" d="M61 1090q0 -160 88.5 -253.5t237.5 -93.5q150 0 244 94.5t94 249.5q0 162 -90 256.5t-244 94.5q-147 0 -238.5 -95.5t-91.5 -252.5zM236 1090q0 102 46 153t111 51q72 0 114 -52t42 -155q0 -100 -45 -151t-115 -51t-111.5 52t-41.5 153z" />
<glyph unicode="&#xbb;" horiz-adv-x="784" d="M41 301l47 -131l305 285v94l-305 285l-47 -132l203 -200zM371 301l45 -131l307 285v94l-307 285l-45 -132l202 -200z" />
<glyph unicode="&#xbc;" horiz-adv-x="1679" d="M20 1427l70 -122l158 79v-696h178v877h-117zM113 -274h204l1059 1708h-207zM834 -16l16 -144h442v-176h174v176h158l14 144h-172v673h-120zM1016 -16l276 366v-366h-276z" />
<glyph unicode="&#xbd;" horiz-adv-x="1728" d="M20 1427l70 -122l158 79v-696h178v877h-117zM92 -274h205l1059 1708h-207zM1020 571l67 -131q66 35 124.5 57.5t121.5 22.5q70 0 109 -35.5t39 -85.5q0 -61 -33 -117.5t-111 -123.5l-299 -254v-129h650l-21 137h-401l176 147q117 100 168 178t51 162q0 66 -34 127.5 t-105.5 100.5t-180.5 39q-92 0 -161.5 -24t-109.5 -45.5t-50 -25.5z" />
<glyph unicode="&#xbe;" horiz-adv-x="1699" d="M0 659q172 -90 313 -90q106 0 187.5 39t125.5 105.5t44 148.5q0 94 -49.5 161t-118.5 81q61 20 106 81.5t45 135.5q0 111 -82 184.5t-235 73.5q-88 0 -162 -26.5t-149 -73.5l69 -123q51 35 103.5 56.5t119.5 21.5q78 0 117 -35t39 -80q0 -76 -60.5 -113t-142.5 -37h-75 l20 -137h45q121 0 176.5 -43t55.5 -129q0 -68 -53.5 -107.5t-135.5 -39.5q-66 0 -114 16t-113 53zM223 -274h205l1059 1708h-207zM854 -16l16 -144h443v-176h174v176h158l14 144h-172v673h-121zM1036 -16l277 366v-366h-277z" />
<glyph unicode="&#xbf;" horiz-adv-x="858" d="M61 229q0 -160 100.5 -255t297.5 -95q110 0 198 30t181 89l-25 176q-94 -66 -178 -97.5t-170 -31.5q-102 0 -158.5 47t-56.5 139q0 100 95 184.5t255 137.5l-18 379l-142 59l-24 -338q-158 -76 -256.5 -192.5t-98.5 -231.5zM395 1192q0 -51 37 -88t88 -37t88 37t37 88 t-37 88t-88 37t-88 -37t-37 -88z" />
<glyph unicode="&#xc0;" d="M20 0h193l139 373h568l145 -389l195 28l-537 1381h-178zM408 530l223 598l229 -598h-452zM432 1837l185 -324l135 35l-111 289h-209z" />
<glyph unicode="&#xc1;" d="M20 0h193l139 373h568l145 -389l195 28l-537 1381h-178zM408 530l223 598l229 -598h-452zM542 1548l136 -35l184 324h-209z" />
<glyph unicode="&#xc2;" d="M20 0h193l139 373h568l145 -389l195 28l-537 1381h-178zM294 1534l179 -21l153 179l154 -179l176 21l-264 303h-135zM408 530l223 598l229 -598h-452z" />
<glyph unicode="&#xc3;" d="M20 0h193l139 373h568l145 -389l195 28l-537 1381h-178zM309 1548h134q2 31 23.5 53.5t45.5 22.5q35 0 57.5 -10t49.5 -31q29 -23 53.5 -34t62.5 -11q86 0 140.5 51t54.5 166h-129q-2 -35 -21.5 -55.5t-46.5 -20.5q-35 0 -58.5 10.5t-49.5 30.5q-31 20 -55.5 31.5 t-65.5 11.5q-88 0 -141.5 -50t-53.5 -165zM408 530l223 598l229 -598h-452z" />
<glyph unicode="&#xc4;" d="M20 0h193l139 373h568l145 -389l195 28l-537 1381h-178zM333 1667q0 -45 33 -78t78 -33q47 0 79 33t32 78t-32 78t-79 33q-45 0 -78 -33t-33 -78zM408 530l223 598l229 -598h-452zM690 1667q0 -45 32.5 -78t77.5 -33q48 0 79.5 33t31.5 78t-31.5 78t-79.5 33 q-45 0 -77.5 -33t-32.5 -78z" />
<glyph unicode="&#xc5;" d="M20 0h193l139 373h568l145 -389l195 28l-537 1381h-178zM408 530l223 598l229 -598h-452zM426 1706q0 -78 58.5 -130t142.5 -52q82 0 140.5 52t58.5 130q0 80 -58.5 135t-140.5 55t-141.5 -55t-59.5 -135zM541 1706q0 37 25.5 61.5t60.5 24.5t59.5 -24.5t24.5 -61.5 q0 -33 -24.5 -58.5t-59.5 -25.5t-60.5 25.5t-25.5 58.5z" />
<glyph unicode="&#xc6;" horiz-adv-x="1857" d="M20 8l185 -28l241 393h486v-373h885l-25 154h-662v479h500l-26 151h-474v457h615l-25 152h-811zM551 530l381 592v-592h-381z" />
<glyph unicode="&#xc7;" horiz-adv-x="1144" d="M82 688q0 209 81 376t231.5 262t348.5 95q74 0 180.5 -21.5t174.5 -62.5l-62 -141q-92 33 -149.5 45t-147.5 12q-127 0 -230 -70.5t-162.5 -199.5t-59.5 -293q0 -152 52 -277.5t151.5 -199.5t232.5 -74q172 0 305 62l76 -148q-57 -29 -143.5 -50t-167.5 -30l-25 -59 q66 -16 110 -65.5t44 -104.5q0 -94 -72 -145.5t-172 -51.5q-39 0 -90 13.5t-82 33.5l45 121q29 -12 64.5 -23t62.5 -11q37 0 65.5 15t28.5 44q0 37 -51 64.5t-131 35.5l53 135q-180 20 -306 120t-190.5 253.5t-64.5 339.5z" />
<glyph unicode="&#xc8;" horiz-adv-x="1110" d="M184 0h885l-27 154h-661v479h500l-27 151h-473v457h614l-26 152h-785v-1393zM405 1837l185 -324l135 35l-111 289h-209z" />
<glyph unicode="&#xc9;" horiz-adv-x="1110" d="M184 0h885l-27 154h-661v479h500l-27 151h-473v457h614l-26 152h-785v-1393zM516 1548l136 -35l184 324h-209z" />
<glyph unicode="&#xca;" horiz-adv-x="1110" d="M184 0h885l-27 154h-661v479h500l-27 151h-473v457h614l-26 152h-785v-1393zM268 1534l179 -21l153 179l154 -179l176 21l-264 303h-135z" />
<glyph unicode="&#xcb;" horiz-adv-x="1110" d="M184 0h885l-27 154h-661v479h500l-27 151h-473v457h614l-26 152h-785v-1393zM307 1667q0 -45 33 -78t78 -33q47 0 79 33t32 78t-32 78t-79 33q-45 0 -78 -33t-33 -78zM664 1667q0 -45 32.5 -78t77.5 -33q48 0 79.5 33t31.5 78t-31.5 78t-79.5 33q-45 0 -77.5 -33 t-32.5 -78z" />
<glyph unicode="&#xcc;" horiz-adv-x="565" d="M88 1837l185 -324l135 35l-111 289h-209zM184 0h197v1393h-197v-1393z" />
<glyph unicode="&#xcd;" horiz-adv-x="565" d="M184 0h197v1393h-197v-1393zM198 1548l136 -35l184 324h-209z" />
<glyph unicode="&#xce;" horiz-adv-x="565" d="M-50 1534l179 -21l153 179l154 -179l176 21l-264 303h-135zM184 0h197v1393h-197v-1393z" />
<glyph unicode="&#xcf;" horiz-adv-x="565" d="M-11 1667q0 -45 33 -78t78 -33q47 0 79 33t32 78t-32 78t-79 33q-45 0 -78 -33t-33 -78zM184 0h197v1393h-197v-1393zM346 1667q0 -45 32.5 -78t77.5 -33q48 0 79.5 33t31.5 78t-31.5 78t-79.5 33q-45 0 -77.5 -33t-32.5 -78z" />
<glyph unicode="&#xd0;" horiz-adv-x="1388" d="M39 768h145v625h502q309 0 465 -189.5t156 -498.5q0 -205 -73 -365t-215 -250t-341 -90h-494v614h-125zM381 164h297q196 0 313 140t117 398q0 242 -103.5 382.5t-310.5 140.5h-313v-457h186l19 -154h-205v-450z" />
<glyph unicode="&#xd1;" horiz-adv-x="1464" d="M184 0h197v1038l723 -1038h176v1393h-199v-1031l-723 1031h-174v-1393zM419 1548h134q2 31 23.5 53.5t45.5 22.5q35 0 57.5 -10t49.5 -31q29 -23 53.5 -34t62.5 -11q86 0 140.5 51t54.5 166h-129q-2 -35 -21.5 -55.5t-46.5 -20.5q-35 0 -58.5 10.5t-49.5 30.5 q-31 20 -55.5 31.5t-65.5 11.5q-88 0 -141.5 -50t-53.5 -165z" />
<glyph unicode="&#xd2;" horiz-adv-x="1492" d="M82 690q0 -207 85 -370.5t235.5 -256t338.5 -92.5q193 2 345.5 98.5t238.5 262.5t86 373t-85 370.5t-236.5 256.5t-341.5 93q-191 -4 -342.5 -100t-237.5 -262t-86 -373zM287 692q0 162 59.5 290t165.5 200.5t240 72.5q129 0 231 -70.5t160.5 -196.5t58.5 -283 q0 -162 -59.5 -291t-165 -202t-238.5 -73q-129 0 -232.5 71t-161.5 198t-58 284zM546 1837l185 -324l135 35l-111 289h-209z" />
<glyph unicode="&#xd3;" horiz-adv-x="1492" d="M82 690q0 -207 85 -370.5t235.5 -256t338.5 -92.5q193 2 345.5 98.5t238.5 262.5t86 373t-85 370.5t-236.5 256.5t-341.5 93q-191 -4 -342.5 -100t-237.5 -262t-86 -373zM287 692q0 162 59.5 290t165.5 200.5t240 72.5q129 0 231 -70.5t160.5 -196.5t58.5 -283 q0 -162 -59.5 -291t-165 -202t-238.5 -73q-129 0 -232.5 71t-161.5 198t-58 284zM657 1548l136 -35l184 324h-209z" />
<glyph unicode="&#xd4;" horiz-adv-x="1492" d="M82 690q0 -207 85 -370.5t235.5 -256t338.5 -92.5q193 2 345.5 98.5t238.5 262.5t86 373t-85 370.5t-236.5 256.5t-341.5 93q-191 -4 -342.5 -100t-237.5 -262t-86 -373zM287 692q0 162 59.5 290t165.5 200.5t240 72.5q129 0 231 -70.5t160.5 -196.5t58.5 -283 q0 -162 -59.5 -291t-165 -202t-238.5 -73q-129 0 -232.5 71t-161.5 198t-58 284zM409 1534l179 -21l153 179l154 -179l176 21l-264 303h-135z" />
<glyph unicode="&#xd5;" horiz-adv-x="1492" d="M82 690q0 -207 85 -370.5t235.5 -256t338.5 -92.5q193 2 345.5 98.5t238.5 262.5t86 373t-85 370.5t-236.5 256.5t-341.5 93q-191 -4 -342.5 -100t-237.5 -262t-86 -373zM287 692q0 162 59.5 290t165.5 200.5t240 72.5q129 0 231 -70.5t160.5 -196.5t58.5 -283 q0 -162 -59.5 -291t-165 -202t-238.5 -73q-129 0 -232.5 71t-161.5 198t-58 284zM423 1548h134q2 31 23.5 53.5t45.5 22.5q35 0 57.5 -10t49.5 -31q29 -23 53.5 -34t62.5 -11q86 0 140.5 51t54.5 166h-129q-2 -35 -21.5 -55.5t-46.5 -20.5q-35 0 -58.5 10.5t-49.5 30.5 q-31 20 -55.5 31.5t-65.5 11.5q-88 0 -141.5 -50t-53.5 -165z" />
<glyph unicode="&#xd6;" horiz-adv-x="1492" d="M82 690q0 -207 85 -370.5t235.5 -256t338.5 -92.5q193 2 345.5 98.5t238.5 262.5t86 373t-85 370.5t-236.5 256.5t-341.5 93q-191 -4 -342.5 -100t-237.5 -262t-86 -373zM287 692q0 162 59.5 290t165.5 200.5t240 72.5q129 0 231 -70.5t160.5 -196.5t58.5 -283 q0 -162 -59.5 -291t-165 -202t-238.5 -73q-129 0 -232.5 71t-161.5 198t-58 284zM448 1667q0 -45 33 -78t78 -33q47 0 79 33t32 78t-32 78t-79 33q-45 0 -78 -33t-33 -78zM805 1667q0 -45 32.5 -78t77.5 -33q48 0 79.5 33t31.5 78t-31.5 78t-79.5 33q-45 0 -77.5 -33 t-32.5 -78z" />
<glyph unicode="&#xd7;" horiz-adv-x="1081" d="M61 61l385 457l-352 453h201l248 -318l276 318h201l-385 -457l352 -453h-201l-247 318l-277 -318h-201z" />
<glyph unicode="&#xd8;" horiz-adv-x="1492" d="M82 690q0 207 86 373t237.5 262t342.5 100q190 0 341.5 -93t236.5 -257t85 -370q0 -207 -86 -373t-238.5 -262.5t-345.5 -98.5q-188 0 -338.5 92.5t-235.5 256t-85 370.5zM287 692q0 -141 46 -255.5t128 -190.5l422 989q-59 20 -131 20q-134 0 -240 -72.5t-165.5 -200.5 t-59.5 -290zM623 156q59 -16 116 -17q133 0 238.5 73t165 202t59.5 291q0 131 -41 241.5t-114 186.5z" />
<glyph unicode="&#xd9;" horiz-adv-x="1413" d="M164 498q0 -150 66.5 -268.5t189.5 -185.5t287 -67t286.5 68t189 185.5t66.5 267.5v895h-198v-877q0 -172 -92.5 -274.5t-251.5 -102.5q-156 0 -251.5 101.5t-95.5 275.5v877h-196v-895zM507 1837l185 -324l135 35l-111 289h-209z" />
<glyph unicode="&#xda;" horiz-adv-x="1413" d="M164 498q0 -150 66.5 -268.5t189.5 -185.5t287 -67t286.5 68t189 185.5t66.5 267.5v895h-198v-877q0 -172 -92.5 -274.5t-251.5 -102.5q-156 0 -251.5 101.5t-95.5 275.5v877h-196v-895zM618 1548l136 -35l184 324h-209z" />
<glyph unicode="&#xdb;" horiz-adv-x="1413" d="M164 498q0 -150 66.5 -268.5t189.5 -185.5t287 -67t286.5 68t189 185.5t66.5 267.5v895h-198v-877q0 -172 -92.5 -274.5t-251.5 -102.5q-156 0 -251.5 101.5t-95.5 275.5v877h-196v-895zM370 1534l179 -21l153 179l154 -179l176 21l-264 303h-135z" />
<glyph unicode="&#xdc;" horiz-adv-x="1413" d="M164 498q0 -150 66.5 -268.5t189.5 -185.5t287 -67t286.5 68t189 185.5t66.5 267.5v895h-198v-877q0 -172 -92.5 -274.5t-251.5 -102.5q-156 0 -251.5 101.5t-95.5 275.5v877h-196v-895zM409 1667q0 -45 33 -78t78 -33q47 0 79 33t32 78t-32 78t-79 33q-45 0 -78 -33 t-33 -78zM766 1667q0 -45 32.5 -78t77.5 -33q48 0 79.5 33t31.5 78t-31.5 78t-79.5 33q-45 0 -77.5 -33t-32.5 -78z" />
<glyph unicode="&#xdd;" horiz-adv-x="1185" d="M20 1358l461 -805v-553h197l2 555l485 838h-209l-376 -643l-369 677zM491 1548l136 -35l184 324h-209z" />
<glyph unicode="&#xde;" horiz-adv-x="1171" d="M184 0v1393h197v-164h203q237 0 381.5 -106.5t144.5 -327.5q0 -150 -73.5 -250.5t-197.5 -148.5t-276 -48h-182v-348h-197zM381 512h190q150 0 239 67.5t95 206.5q0 152 -82 214.5t-241 62.5h-201v-551z" />
<glyph unicode="&#xdf;" horiz-adv-x="1212" d="M143 0h197v967q0 125 71.5 201.5t194.5 76.5q106 0 176 -57.5t70 -163.5t-72.5 -165.5t-216.5 -59.5h-63v-158h143q131 0 212 -64.5t81 -183.5q0 -117 -87 -174t-226 -57h-146v-162h154q231 0 370.5 98.5t139.5 292.5q0 129 -73 223.5t-183 130.5q78 39 124 117t46 172 q0 182 -127 281.5t-326 99.5q-209 0 -334 -119.5t-125 -326.5v-969z" />
<glyph unicode="&#xe0;" horiz-adv-x="1009" d="M96 287q0 -141 88 -226.5t258 -85.5q76 0 156 35t135 84l25 -94h137v674q0 94 -52 174t-144.5 126t-204.5 46q-70 0 -177.5 -25.5t-160.5 -62.5l55 -156q152 68 287 68q111 0 154.5 -64.5t43.5 -185.5h-235q-166 0 -265.5 -81t-99.5 -226zM272 287q0 73 49.5 124.5 t135.5 51.5h241v-201q-53 -59 -120.5 -95t-139.5 -36q-80 0 -123 46t-43 110zM284 1530l185 -324l135 35l-111 289h-209z" />
<glyph unicode="&#xe1;" horiz-adv-x="1009" d="M96 287q0 -141 88 -226.5t258 -85.5q76 0 156 35t135 84l25 -94h137v674q0 94 -52 174t-144.5 126t-204.5 46q-70 0 -177.5 -25.5t-160.5 -62.5l55 -156q152 68 287 68q111 0 154.5 -64.5t43.5 -185.5h-235q-166 0 -265.5 -81t-99.5 -226zM272 287q0 73 49.5 124.5 t135.5 51.5h241v-201q-53 -59 -120.5 -95t-139.5 -36q-80 0 -123 46t-43 110zM358 1241l136 -35l184 324h-209z" />
<glyph unicode="&#xe2;" horiz-adv-x="1009" d="M96 287q0 -141 88 -226.5t258 -85.5q76 0 156 35t135 84l25 -94h137v674q0 94 -52 174t-144.5 126t-204.5 46q-70 0 -177.5 -25.5t-160.5 -62.5l55 -156q152 68 287 68q111 0 154.5 -64.5t43.5 -185.5h-235q-166 0 -265.5 -81t-99.5 -226zM153 1227l179 -21l153 178 l154 -178l176 21l-264 303h-135zM272 287q0 73 49.5 124.5t135.5 51.5h241v-201q-53 -59 -120.5 -95t-139.5 -36q-80 0 -123 46t-43 110z" />
<glyph unicode="&#xe3;" horiz-adv-x="1009" d="M96 287q0 -141 88 -226.5t258 -85.5q76 0 156 35t135 84l25 -94h137v674q0 94 -52 174t-144.5 126t-204.5 46q-70 0 -177.5 -25.5t-160.5 -62.5l55 -156q152 68 287 68q111 0 154.5 -64.5t43.5 -185.5h-235q-166 0 -265.5 -81t-99.5 -226zM182 1241h134q2 31 23.5 53.5 t45.5 22.5q27 0 47.5 -9.5t46.5 -29.5q35 -23 62 -35t67 -12q86 0 140.5 51t54.5 166h-129q-2 -35 -21.5 -55.5t-46.5 -20.5t-46 9.5t-50 27.5q-35 23 -62.5 35t-70.5 12q-88 0 -141.5 -50t-53.5 -165zM272 287q0 73 49.5 124.5t135.5 51.5h241v-201q-53 -59 -120.5 -95 t-139.5 -36q-80 0 -123 46t-43 110z" />
<glyph unicode="&#xe4;" horiz-adv-x="1009" d="M96 287q0 -141 88 -226.5t258 -85.5q76 0 156 35t135 84l25 -94h137v674q0 94 -52 174t-144.5 126t-204.5 46q-70 0 -177.5 -25.5t-160.5 -62.5l55 -156q152 68 287 68q111 0 154.5 -64.5t43.5 -185.5h-235q-166 0 -265.5 -81t-99.5 -226zM176 1360q0 -45 33 -78t78 -33 q47 0 79 33t32 78t-32 77.5t-79 32.5q-45 0 -78 -32.5t-33 -77.5zM272 287q0 73 49.5 124.5t135.5 51.5h241v-201q-53 -59 -120.5 -95t-139.5 -36q-80 0 -123 46t-43 110zM533 1360q0 -45 32.5 -78t77.5 -33q48 0 79.5 33t31.5 78t-31.5 77.5t-79.5 32.5q-45 0 -77.5 -32.5 t-32.5 -77.5z" />
<glyph unicode="&#xe5;" horiz-adv-x="1009" d="M96 287q0 -141 88 -226.5t258 -85.5q76 0 156 35t135 84l25 -94h137v674q0 94 -52 174t-144.5 126t-204.5 46q-70 0 -177.5 -25.5t-160.5 -62.5l55 -156q152 68 287 68q111 0 154.5 -64.5t43.5 -185.5h-235q-166 0 -265.5 -81t-99.5 -226zM272 287q0 73 49.5 124.5 t135.5 51.5h241v-201q-53 -59 -120.5 -95t-139.5 -36q-80 0 -123 46t-43 110zM286 1399q0 -78 58.5 -130t142.5 -52q82 0 140.5 52t58.5 130q0 80 -58.5 135t-140.5 55t-141.5 -55t-59.5 -135zM401 1399q0 37 25.5 61.5t60.5 24.5t59.5 -24.5t24.5 -61.5q0 -33 -24.5 -58.5 t-59.5 -25.5t-60.5 25.5t-25.5 58.5z" />
<glyph unicode="&#xe6;" horiz-adv-x="1662" d="M96 287q0 145 99.5 226t265.5 81h235q0 119 -44 184.5t-154 65.5q-135 0 -287 -68l-55 156q53 37 160.5 62.5t177.5 25.5q100 0 185 -39t140 -104q63 70 151.5 106.5t196.5 36.5q219 0 327 -148.5t108 -379.5v-39h-705q12 -145 93 -229.5t241 -84.5q78 0 136 19.5 t163 68.5l61 -143q-180 -109 -360 -109q-279 0 -420 164q-152 -164 -369 -164q-170 0 -258 85t-88 227zM272 287q0 -63 43 -109.5t123 -46.5q105 0 171.5 39t119.5 109q-31 82 -37 184h-235q-86 0 -135.5 -51.5t-49.5 -124.5zM901 586h510q-39 266 -250 266 q-113 0 -179.5 -70.5t-80.5 -195.5z" />
<glyph unicode="&#xe7;" horiz-adv-x="950" d="M61 498q0 154 61.5 272.5t175.5 184t265 65.5q68 0 170.5 -27.5t163.5 -68.5l-57 -140q-84 35 -142.5 51.5t-136.5 16.5q-135 0 -216 -100.5t-83 -251.5q0 -160 78 -259.5t215 -99.5q84 0 145.5 16.5t133.5 51.5l59 -141q-49 -33 -126 -56.5t-151 -34.5l-24 -63 q66 -16 109.5 -65.5t43.5 -104.5q0 -94 -71.5 -145.5t-171.5 -51.5q-39 0 -90.5 13.5t-81.5 33.5l45 121q29 -12 64.5 -23t62.5 -11q37 0 65.5 15t28.5 44q0 37 -51 64.5t-131 35.5l55 140q-190 27 -299 167t-109 351z" />
<glyph unicode="&#xe8;" horiz-adv-x="1032" d="M61 498q0 -240 139.5 -381.5t399.5 -141.5q180 0 361 109l-62 143q-104 -49 -162.5 -68.5t-136.5 -19.5q-160 0 -240.5 84t-93.5 230h705v53q0 225 -109.5 369.5t-324.5 144.5q-145 0 -253 -65.5t-165.5 -184.5t-57.5 -272zM270 586q15 125 81.5 195.5t178.5 70.5 q211 0 250 -266h-510zM329 1530l185 -324l135 35l-111 289h-209z" />
<glyph unicode="&#xe9;" horiz-adv-x="1032" d="M61 498q0 -240 139.5 -381.5t399.5 -141.5q180 0 361 109l-62 143q-104 -49 -162.5 -68.5t-136.5 -19.5q-160 0 -240.5 84t-93.5 230h705v53q0 225 -109.5 369.5t-324.5 144.5q-145 0 -253 -65.5t-165.5 -184.5t-57.5 -272zM270 586q15 125 81.5 195.5t178.5 70.5 q211 0 250 -266h-510zM403 1241l136 -35l184 324h-209z" />
<glyph unicode="&#xea;" horiz-adv-x="1032" d="M61 498q0 -240 139.5 -381.5t399.5 -141.5q180 0 361 109l-62 143q-104 -49 -162.5 -68.5t-136.5 -19.5q-160 0 -240.5 84t-93.5 230h705v53q0 225 -109.5 369.5t-324.5 144.5q-145 0 -253 -65.5t-165.5 -184.5t-57.5 -272zM198 1227l179 -21l153 178l154 -178l176 21 l-264 303h-135zM270 586q15 125 81.5 195.5t178.5 70.5q211 0 250 -266h-510z" />
<glyph unicode="&#xeb;" horiz-adv-x="1032" d="M61 498q0 -240 139.5 -381.5t399.5 -141.5q180 0 361 109l-62 143q-104 -49 -162.5 -68.5t-136.5 -19.5q-160 0 -240.5 84t-93.5 230h705v53q0 225 -109.5 369.5t-324.5 144.5q-145 0 -253 -65.5t-165.5 -184.5t-57.5 -272zM221 1360q0 -45 33 -78t78 -33q47 0 79 33 t32 78t-32 77.5t-79 32.5q-45 0 -78 -32.5t-33 -77.5zM270 586q15 125 81.5 195.5t178.5 70.5q211 0 250 -266h-510zM578 1360q0 -45 32.5 -78t77.5 -33q48 0 79.5 33t31.5 78t-31.5 77.5t-79.5 32.5q-45 0 -77.5 -32.5t-32.5 -77.5z" />
<glyph unicode="&#xec;" horiz-adv-x="444" d="M16 1530l185 -324l135 35l-111 289h-209zM123 0h199v993h-199v-993z" />
<glyph unicode="&#xed;" horiz-adv-x="444" d="M90 1241l136 -35l184 324h-209zM123 0h199v993h-199v-993z" />
<glyph unicode="&#xee;" horiz-adv-x="444" d="M-115 1227l179 -21l153 178l154 -178l176 21l-264 303h-135zM123 0h199v993h-199v-993z" />
<glyph unicode="&#xef;" horiz-adv-x="444" d="M-93 1360q0 -45 33 -78t78 -33q47 0 79 33t32 78t-32 77.5t-79 32.5q-45 0 -78 -32.5t-33 -77.5zM123 0h199v993h-199v-993zM264 1360q0 -45 32.5 -78t77.5 -33q48 0 79.5 33t31.5 78t-31.5 77.5t-79.5 32.5q-45 0 -77.5 -32.5t-32.5 -77.5z" />
<glyph unicode="&#xf0;" horiz-adv-x="1116" d="M61 498q0 154 61.5 272.5t174.5 184t264 65.5q76 0 166 -37q-88 139 -244 250l-256 -129l-69 131l176 88q-61 33 -154 70l58 143q143 -49 272 -127l223 111l68 -125l-154 -78q199 -152 303.5 -357.5t104.5 -445.5q0 -158 -57.5 -279.5t-170 -191.5t-274.5 -70 q-150 0 -261.5 65.5t-171 184.5t-59.5 275zM262 500q0 -160 78 -259.5t215 -99.5q135 0 216 100.5t83 252.5q0 137 -27 251q-51 51 -113.5 79t-152.5 28q-135 0 -216 -100.5t-83 -251.5z" />
<glyph unicode="&#xf1;" horiz-adv-x="1107" d="M123 0h196v700q80 70 162 114t152 44q92 0 128 -56.5t36 -164.5v-637h196v655q0 170 -78.5 270.5t-240.5 100.5q-98 0 -198.5 -46t-180.5 -118l-35 131h-137v-993zM268 1241h134q2 31 23.5 53.5t45.5 22.5q27 0 47.5 -9.5t46.5 -29.5q35 -23 62 -35t67 -12q86 0 140.5 51 t54.5 166h-129q-2 -35 -21.5 -55.5t-46.5 -20.5t-46 9.5t-50 27.5q-35 23 -62.5 35t-70.5 12q-88 0 -141.5 -50t-53.5 -165z" />
<glyph unicode="&#xf2;" horiz-adv-x="1116" d="M61 498q0 154 61.5 272.5t174.5 184t264 65.5q150 0 261.5 -65.5t172 -184.5t60.5 -274q0 -154 -61.5 -273t-175 -184.5t-265.5 -65.5q-150 0 -261.5 65.5t-171 184.5t-59.5 275zM262 500q0 -160 78 -259.5t215 -99.5q135 0 216 100.5t83 252.5q0 160 -78 259t-215 99 q-135 0 -216 -100.5t-83 -251.5zM354 1530l185 -324l135 35l-111 289h-209z" />
<glyph unicode="&#xf3;" horiz-adv-x="1116" d="M61 498q0 154 61.5 272.5t174.5 184t264 65.5q150 0 261.5 -65.5t172 -184.5t60.5 -274q0 -154 -61.5 -273t-175 -184.5t-265.5 -65.5q-150 0 -261.5 65.5t-171 184.5t-59.5 275zM262 500q0 -160 78 -259.5t215 -99.5q135 0 216 100.5t83 252.5q0 160 -78 259t-215 99 q-135 0 -216 -100.5t-83 -251.5zM428 1241l136 -35l184 324h-209z" />
<glyph unicode="&#xf4;" horiz-adv-x="1116" d="M61 498q0 154 61.5 272.5t174.5 184t264 65.5q150 0 261.5 -65.5t172 -184.5t60.5 -274q0 -154 -61.5 -273t-175 -184.5t-265.5 -65.5q-150 0 -261.5 65.5t-171 184.5t-59.5 275zM223 1227l179 -21l153 178l154 -178l176 21l-264 303h-135zM262 500q0 -160 78 -259.5 t215 -99.5q135 0 216 100.5t83 252.5q0 160 -78 259t-215 99q-135 0 -216 -100.5t-83 -251.5z" />
<glyph unicode="&#xf5;" horiz-adv-x="1116" d="M61 498q0 154 61.5 272.5t174.5 184t264 65.5q150 0 261.5 -65.5t172 -184.5t60.5 -274q0 -154 -61.5 -273t-175 -184.5t-265.5 -65.5q-150 0 -261.5 65.5t-171 184.5t-59.5 275zM251 1241h134q2 31 23.5 53.5t45.5 22.5q27 0 47.5 -9.5t46.5 -29.5q35 -23 62 -35t67 -12 q86 0 140.5 51t54.5 166h-129q-2 -35 -21.5 -55.5t-46.5 -20.5t-46 9.5t-50 27.5q-35 23 -62.5 35t-70.5 12q-88 0 -141.5 -50t-53.5 -165zM262 500q0 -160 78 -259.5t215 -99.5q135 0 216 100.5t83 252.5q0 160 -78 259t-215 99q-135 0 -216 -100.5t-83 -251.5z" />
<glyph unicode="&#xf6;" horiz-adv-x="1116" d="M61 498q0 154 61.5 272.5t174.5 184t264 65.5q150 0 261.5 -65.5t172 -184.5t60.5 -274q0 -154 -61.5 -273t-175 -184.5t-265.5 -65.5q-150 0 -261.5 65.5t-171 184.5t-59.5 275zM245 1360q0 -45 33 -78t78 -33q47 0 79 33t32 78t-32 77.5t-79 32.5q-45 0 -78 -32.5 t-33 -77.5zM262 500q0 -160 78 -259.5t215 -99.5q135 0 216 100.5t83 252.5q0 160 -78 259t-215 99q-135 0 -216 -100.5t-83 -251.5zM602 1360q0 -45 32.5 -78t77.5 -33q48 0 79.5 33t31.5 78t-31.5 77.5t-79.5 32.5q-45 0 -77.5 -32.5t-32.5 -77.5z" />
<glyph unicode="&#xf7;" horiz-adv-x="1030" d="M61 637l19 -156h889l-19 156h-889zM377 872q0 -55 40 -95t97 -40t96 40t39 95q0 57 -39 97.5t-96 40.5t-97 -40t-40 -98zM379 219q0 -55 40 -96t97 -41t97 41t40 96q0 57 -40 97t-97 40t-97 -40t-40 -97z" />
<glyph unicode="&#xf8;" horiz-adv-x="1144" d="M61 498q0 154 61.5 272.5t174.5 184t264 65.5q150 0 261.5 -65.5t172 -184.5t60.5 -274q0 -154 -61.5 -273t-175 -184.5t-265.5 -65.5q-150 0 -261.5 65.5t-171 184.5t-59.5 275zM262 500q0 -164 80 -262l320 598q-49 16 -101 16q-135 0 -216 -100.5t-83 -251.5zM492 147 q29 -6 63 -6q135 0 216 100.5t83 252.5q0 135 -55 227z" />
<glyph unicode="&#xf9;" horiz-adv-x="1107" d="M115 338q0 -170 78.5 -270.5t240.5 -100.5q98 0 198.5 46t180.5 118l35 -131h137v993h-197v-700q-80 -70 -161.5 -114t-151.5 -44q-92 0 -128 56.5t-36 164.5v637h-196v-655zM342 1530l185 -324l135 35l-111 289h-209z" />
<glyph unicode="&#xfa;" horiz-adv-x="1107" d="M115 338q0 -170 78.5 -270.5t240.5 -100.5q98 0 198.5 46t180.5 118l35 -131h137v993h-197v-700q-80 -70 -161.5 -114t-151.5 -44q-92 0 -128 56.5t-36 164.5v637h-196v-655zM415 1241l136 -35l184 324h-209z" />
<glyph unicode="&#xfb;" horiz-adv-x="1107" d="M115 338q0 -170 78.5 -270.5t240.5 -100.5q98 0 198.5 46t180.5 118l35 -131h137v993h-197v-700q-80 -70 -161.5 -114t-151.5 -44q-92 0 -128 56.5t-36 164.5v637h-196v-655zM210 1227l179 -21l153 178l154 -178l176 21l-264 303h-135z" />
<glyph unicode="&#xfc;" horiz-adv-x="1107" d="M115 338q0 -170 78.5 -270.5t240.5 -100.5q98 0 198.5 46t180.5 118l35 -131h137v993h-197v-700q-80 -70 -161.5 -114t-151.5 -44q-92 0 -128 56.5t-36 164.5v637h-196v-655zM233 1360q0 -45 33 -78t78 -33q47 0 79 33t32 78t-32 77.5t-79 32.5q-45 0 -78 -32.5 t-33 -77.5zM590 1360q0 -45 32.5 -78t77.5 -33q48 0 79.5 33t31.5 78t-31.5 77.5t-79.5 32.5q-45 0 -77.5 -32.5t-32.5 -77.5z" />
<glyph unicode="&#xfd;" horiz-adv-x="968" d="M20 961l363 -934l-57 -152q-23 -61 -76 -97t-152 -79l66 -152q119 27 213 99.5t131 173.5l440 1173h-203l-262 -712l-276 749zM339 1241l136 -35l184 324h-209z" />
<glyph unicode="&#xfe;" horiz-adv-x="1091" d="M135 -449v1872l197 23v-488q55 29 109.5 45.5t95.5 16.5q151 0 262.5 -65.5t171 -185.5t59.5 -280q0 -154 -61.5 -270.5t-174 -181t-259.5 -64.5q-41 0 -95.5 14.5t-107.5 43.5v-457zM332 209q86 -68 205 -68q137 0 214.5 97.5t77.5 248.5q0 164 -76.5 264.5 t-215.5 100.5q-121 0 -205 -72v-571z" />
<glyph unicode="&#xff;" horiz-adv-x="968" d="M20 961l363 -934l-57 -152q-23 -61 -76 -97t-152 -79l66 -152q119 27 213 99.5t131 173.5l440 1173h-203l-262 -712l-276 749zM157 1360q0 -45 33 -78t78 -33q47 0 79 33t32 78t-32 77.5t-79 32.5q-45 0 -78 -32.5t-33 -77.5zM514 1360q0 -45 32.5 -78t77.5 -33 q48 0 79.5 33t31.5 78t-31.5 77.5t-79.5 32.5q-45 0 -77.5 -32.5t-32.5 -77.5z" />
<glyph unicode="&#x152;" horiz-adv-x="1949" d="M82 688q0 209 81 376t231.5 262t348.5 95q55 0 135 -12t146 -37v21h784l27 -152h-614v-457h473l26 -151h-499v-479h661l27 -154h-885v20q-70 -23 -148.5 -36t-144.5 -13q-207 0 -353.5 95.5t-221 258t-74.5 363.5zM287 690q0 -152 52 -277.5t151.5 -199.5t232.5 -74 q164 1 301 60v1001q-84 29 -141.5 41t-143.5 12q-127 0 -230 -70.5t-162.5 -199.5t-59.5 -293z" />
<glyph unicode="&#x153;" horiz-adv-x="1660" d="M61 498q0 154 61.5 272.5t175.5 184t265 65.5q63 0 158.5 -24.5t159.5 -61.5q119 86 284 86q215 0 324.5 -144.5t109.5 -369.5v-53h-704q12 -145 93 -229.5t241 -84.5q78 0 136 19.5t163 68.5l61 -143q-180 -109 -360 -109q-203 0 -338 91q-61 -41 -163.5 -67t-172.5 -26 q-150 0 -261.5 65.5t-172 184.5t-60.5 275zM262 500q0 -160 78 -259.5t215 -99.5q115 0 221 41q-86 129 -86 316q0 180 80 315q-106 39 -209 39q-135 0 -216 -100.5t-83 -251.5zM899 586h510q-39 266 -250 266q-113 0 -179.5 -70.5t-80.5 -195.5z" />
<glyph unicode="&#x178;" horiz-adv-x="1185" d="M20 1358l461 -805v-553h197l2 555l485 838h-209l-376 -643l-369 677zM282 1667q0 -45 33 -78t78 -33q47 0 79 33t32 78t-32 78t-79 33q-45 0 -78 -33t-33 -78zM639 1667q0 -45 32.5 -78t77.5 -33q48 0 79.5 33t31.5 78t-31.5 78t-79.5 33q-45 0 -77.5 -33t-32.5 -78z" />
<glyph unicode="&#x2c6;" horiz-adv-x="702" d="M20 1227l179 -21l153 178l154 -178l176 21l-264 303h-135z" />
<glyph unicode="&#x2dc;" horiz-adv-x="661" d="M20 1241h134q2 31 23.5 53.5t45.5 22.5q27 0 47.5 -9.5t46.5 -29.5q35 -23 62 -35t67 -12q86 0 140.5 51t54.5 166h-129q-2 -35 -21.5 -55.5t-46.5 -20.5t-46 9.5t-50 27.5q-35 23 -62.5 35t-70.5 12q-88 0 -141.5 -50t-53.5 -165z" />
<glyph unicode="&#x2000;" horiz-adv-x="948" />
<glyph unicode="&#x2001;" horiz-adv-x="1896" />
<glyph unicode="&#x2002;" horiz-adv-x="948" />
<glyph unicode="&#x2003;" horiz-adv-x="1896" />
<glyph unicode="&#x2004;" horiz-adv-x="632" />
<glyph unicode="&#x2005;" horiz-adv-x="474" />
<glyph unicode="&#x2006;" horiz-adv-x="316" />
<glyph unicode="&#x2007;" horiz-adv-x="316" />
<glyph unicode="&#x2008;" horiz-adv-x="237" />
<glyph unicode="&#x2009;" horiz-adv-x="379" />
<glyph unicode="&#x200a;" horiz-adv-x="105" />
<glyph unicode="&#x2010;" horiz-adv-x="663" d="M61 637l19 -156h522l-18 156h-523z" />
<glyph unicode="&#x2011;" horiz-adv-x="663" d="M61 637l19 -156h522l-18 156h-523z" />
<glyph unicode="&#x2012;" horiz-adv-x="663" d="M61 637l19 -156h522l-18 156h-523z" />
<glyph unicode="&#x2013;" horiz-adv-x="901" d="M61 637l19 -156h760l-19 156h-760z" />
<glyph unicode="&#x2014;" horiz-adv-x="1107" d="M61 637l19 -156h967l-17 156h-969z" />
<glyph unicode="&#x2018;" horiz-adv-x="378" d="M61 1110q0 -63 36 -105t89 -42q50 0 86.5 37.5t36.5 86.5q0 45 -30.5 83t-69.5 40q6 55 36.5 91t92.5 83l-49 95q-96 -51 -162 -158t-66 -211z" />
<glyph unicode="&#x2019;" horiz-adv-x="378" d="M41 1055l47 -92q96 51 162.5 157.5t66.5 210.5q0 63 -37.5 105.5t-89.5 42.5q-49 0 -86.5 -40t-37.5 -85t31.5 -83t68.5 -40q-6 -55 -37 -93t-88 -83z" />
<glyph unicode="&#x201a;" horiz-adv-x="378" d="M41 -176l47 -92q96 51 162.5 157.5t66.5 208.5q0 66 -36.5 107t-90.5 41q-49 0 -86.5 -37t-37.5 -86q0 -45 31.5 -83t68.5 -40q-6 -55 -37 -93t-88 -83z" />
<glyph unicode="&#x201c;" horiz-adv-x="718" d="M61 1110q0 -63 36 -105t89 -42q50 0 86.5 37.5t36.5 86.5q0 45 -30.5 83t-69.5 40q6 55 36.5 91t92.5 83l-49 95q-96 -51 -162 -158t-66 -211zM401 1110q0 -63 36 -105t87 -42t89 38.5t38 85.5q0 43 -31.5 82t-68.5 41q6 55 36.5 92t90.5 82l-49 95q-96 -51 -162 -158 t-66 -211z" />
<glyph unicode="&#x201d;" horiz-adv-x="716" d="M41 1055l47 -92q96 51 162.5 157.5t66.5 210.5q0 63 -37.5 105.5t-89.5 42.5q-49 0 -86.5 -40t-37.5 -85t31.5 -83t68.5 -40q-6 -55 -37 -93t-88 -83zM379 1055l49 -92q96 51 161.5 157.5t65.5 210.5q0 66 -36.5 107t-88.5 41q-49 0 -86.5 -40t-37.5 -85t31.5 -83 t70.5 -40q-10 -55 -41 -94t-88 -82z" />
<glyph unicode="&#x201e;" horiz-adv-x="716" d="M41 -174l47 -94q96 51 162.5 157.5t66.5 208.5q0 66 -36.5 107t-90.5 41q-49 0 -86.5 -37t-37.5 -86q0 -45 31.5 -83t68.5 -40q-6 -55 -36 -92t-89 -82zM379 -176l49 -92q96 51 161.5 156.5t65.5 209.5q0 66 -35.5 107t-89.5 41q-49 0 -86.5 -37t-37.5 -86 q0 -45 31.5 -83t70.5 -40q-10 -55 -41 -94t-88 -82z" />
<glyph unicode="&#x2022;" horiz-adv-x="512" d="M61 672q0 -80 56.5 -136.5t138.5 -56.5t138.5 56.5t56.5 136.5t-56.5 137t-138.5 57t-138.5 -57t-56.5 -137z" />
<glyph unicode="&#x2026;" horiz-adv-x="1001" d="M61 113q0 -47 34 -80t81 -33q49 0 82 33t33 80q0 49 -33 82.5t-82 33.5q-47 0 -81 -33.5t-34 -82.5zM389 113q0 -47 34 -80t83 -33q45 0 78.5 33t33.5 80q0 49 -33.5 82.5t-78.5 33.5q-49 0 -83 -33.5t-34 -82.5zM711 113q0 -47 33.5 -80t80.5 -33t81 33t34 80 q0 49 -34 82.5t-81 33.5t-80.5 -33.5t-33.5 -82.5z" />
<glyph unicode="&#x202f;" horiz-adv-x="379" />
<glyph unicode="&#x2039;" horiz-adv-x="454" d="M61 453l308 -283l45 137l-195 195l195 192l-45 142l-308 -285v-98z" />
<glyph unicode="&#x203a;" horiz-adv-x="454" d="M41 307l45 -137l307 283v98l-307 285l-45 -142l195 -192z" />
<glyph unicode="&#x205f;" horiz-adv-x="474" />
<glyph unicode="&#x20ac;" horiz-adv-x="1234" d="M0 584h178q-6 53 -6 104q0 59 6 115h-155l-23 147h209q66 215 228.5 343t396.5 128q74 0 180 -21.5t174 -62.5l-62 -141q-92 33 -149 45t-148 12q-135 0 -243.5 -80.5t-163.5 -222.5h475l18 -147h-530q-8 -49 -8 -113q0 -53 6 -106h514l18 -150h-495q51 -135 152.5 -215 t240.5 -80q172 0 305 62l76 -148q-68 -35 -176.5 -58.5t-196.5 -23.5q-240 0 -397.5 126t-216.5 337h-184z" />
<glyph unicode="&#x2122;" horiz-adv-x="1519" d="M20 1274h238v-649h148v649h249l-16 119h-619v-119zM748 625h149v448l186 -246l41 9l166 227v-438h148v768h-68l-268 -369l-287 369h-67v-768z" />
<glyph unicode="&#x25fc;" horiz-adv-x="1024" d="M0 0v1024h1024v-1024h-1024z" />
<glyph unicode="&#xfb01;" horiz-adv-x="1107" d="M31 981l2 -150h149v-831h197v831h248l-64 150h-184v111q0 80 33.5 126t103.5 46q39 0 98 -23l50 152q-27 18 -75 31.5t-91 13.5q-147 0 -231.5 -89t-84.5 -239v-129h-151zM762 1294q0 -51 35 -87t86 -36t88 36t37 87t-37 87t-88 36t-86 -35.5t-35 -87.5zM787 0h199v993 h-199v-993z" />
<glyph unicode="&#xfb02;" horiz-adv-x="1146" d="M31 981l2 -150h149v-831h197v831h248l-64 150h-184v111q0 80 33.5 126t103.5 46q39 0 98 -23l50 152q-27 18 -75 31.5t-91 13.5q-147 0 -231.5 -89t-84.5 -239v-129h-151zM807 0h197v1446l-197 -23v-1423z" />
</font>
</defs>
</svg>
